<?xml version="1.0" encoding="UTF-8" standalone="no"?>
<!-- Created with Inkscape (http://www.inkscape.org/) -->

<svg
   width="82mm"
   height="82.000008mm"
   viewBox="0 0 82 82.000008"
   version="1.1"
   id="svg5"
   xml:space="preserve"
   inkscape:version="1.2.2 (732a01da63, 2022-12-09)"
   sodipodi:docname="desenho.svg"
   xmlns:inkscape="http://www.inkscape.org/namespaces/inkscape"
   xmlns:sodipodi="http://sodipodi.sourceforge.net/DTD/sodipodi-0.dtd"
   xmlns="http://www.w3.org/2000/svg"
   xmlns:svg="http://www.w3.org/2000/svg"><sodipodi:namedview
     id="namedview7"
     pagecolor="#505050"
     bordercolor="#eeeeee"
     borderopacity="1"
     inkscape:showpageshadow="0"
     inkscape:pageopacity="0"
     inkscape:pagecheckerboard="0"
     inkscape:deskcolor="#505050"
     inkscape:document-units="mm"
     showgrid="false"
     inkscape:zoom="0.33071229"
     inkscape:cx="-656.15946"
     inkscape:cy="1105.1902"
     inkscape:window-width="2196"
     inkscape:window-height="728"
     inkscape:window-x="-9"
     inkscape:window-y="0"
     inkscape:window-maximized="0"
     inkscape:current-layer="layer1" /><defs
     id="defs2" /><g
     inkscape:label="Camada 1"
     inkscape:groupmode="layer"
     id="layer1"
     transform="translate(346.61561,-123.8084)"><g
       id="g5757"
       transform="translate(-32.001633,-92.80474)"
       inkscape:export-filename="portifolio\src\image\skills\css.png"
       inkscape:export-xdpi="96"
       inkscape:export-ydpi="96"><rect
         style="fill:#2684c4;fill-opacity:1;stroke:#a8a8a8;stroke-width:0.101572;stroke-linecap:round;stroke-linejoin:round;stroke-miterlimit:1.3;stroke-opacity:0.623529;paint-order:markers stroke fill"
         id="rect394-5"
         width="81.89843"
         height="81.89843"
         x="-314.56317"
         y="216.66393" /><g
         id="g5718"
         transform="translate(-26.002146,106.03459)"><g
           id="g4833"
           transform="translate(-118.0052,-150.03684)"><path
             style="fill:#ffffff;fill-opacity:1;stroke-width:0.264583"
             d="m -130.86336,337.04494 c -0.21828,-0.088 -4.74266,-1.37331 -10.05417,-2.8562 l -9.65729,-2.69615 -0.31094,-3.27448 c -0.17101,-1.80096 -0.56267,-6.25104 -0.87036,-9.88906 -0.57738,-6.82681 -1.07642,-12.56953 -2.27056,-26.12862 -0.38132,-4.32981 -0.71315,-8.85419 -0.73739,-10.05417 l -0.0441,-2.18179 25.20156,-0.0494 25.20156,-0.0494 v 0.73847 c 0,0.40617 -0.23999,3.52402 -0.53331,6.92856 -0.29332,3.40454 -0.83003,9.70242 -1.1927,13.99529 -0.36266,4.29286 -0.83721,9.76974 -1.05454,12.17083 -0.62857,6.94438 -1.45278,16.72246 -1.45278,17.23508 0,0.5436 0.26158,0.45955 -12.19556,3.91839 -8.45702,2.34817 -9.22654,2.51641 -10.02944,2.19263 z"
             id="path316-1" /><path
             id="path316-1-8"
             style="fill:#eeeeee;fill-opacity:1;stroke-width:0.264583"
             d="m -130.20652,333.91192 c 0.0258,0.007 0.0517,0.0145 0.0775,0.0217 5.85895,-1.2617 11.58162,-3.09794 17.33796,-4.66225 1.07786,-0.42155 1.37454,-1.68093 1.32705,-2.72438 1.23803,-14.49861 2.46697,-28.99828 3.69073,-43.49812 -7.47772,0.0122 -14.95552,0.0261 -22.43325,0.0398 z" /></g><g
           id="g4873"
           style="fill:#ffffff;fill-opacity:1"><path
             style="fill:#ffffff;fill-opacity:1;stroke-width:0.264583"
             d="m -242.25398,124.37732 v -1.46146 h 3.175 c 4.1591,0 4.21404,-0.48746 0.0661,-0.58691 l -3.10886,-0.0745 -0.0746,-3.11514 -0.0746,-3.11514 4.57251,0.0724 4.57252,0.0724 v 1.32292 1.32291 l -3.175,0.1323 c -2.24118,0.0934 -3.19446,0.22956 -3.24115,0.46302 -0.0501,0.25051 0.73816,0.33073 3.24981,0.33073 h 3.31596 l -0.0748,2.97656 -0.0748,2.97656 -4.56407,0.0724 -4.56406,0.0724 v -1.46146 z"
             id="path336" /><path
             style="fill:#ffffff;fill-opacity:1;stroke-width:0.264583"
             d="m -252.57273,124.37132 v -1.4552 h 3.175 c 1.94028,0 3.175,-0.1029 3.175,-0.26459 0,-0.16169 -1.23472,-0.26458 -3.175,-0.26458 h -3.175 v -3.18125 -3.18125 l 4.56406,0.0724 4.56407,0.0724 0.08,1.38906 0.08,1.38907 h -3.18882 c -2.65813,0 -3.18883,0.0661 -3.18883,0.39687 0,0.33073 0.52917,0.39688 3.175,0.39688 h 3.175 v 3.0427 3.04271 h -4.63021 -4.63021 z"
             id="path334" /><path
             style="fill:#ffffff;fill-opacity:1;stroke-width:0.264583"
             d="m -262.8313,120.99789 0.0721,-4.82865 4.56407,-0.0724 4.56406,-0.0724 v 1.46146 1.46146 h -3.175 -3.175 v 1.98437 1.98438 h 3.175 3.175 v 1.4552 1.45521 h -4.63618 -4.63618 z"
             id="path332" /></g><path
           style="fill:#2684c4;fill-opacity:1;stroke-width:0.264583"
           d="m -241.95794,174.23078 c 6.53184,-1.79446 7.1123,-1.98517 7.1123,-2.33673 0,-0.13624 0.29618,-3.5027 0.65818,-7.48102 0.36199,-3.97833 0.73126,-8.03699 0.8206,-9.01926 l 0.16242,-1.78594 h -5.97998 c -3.79424,0 -5.97997,-0.0963 -5.97997,-0.26352 0,-0.14494 2.8575,-1.69323 6.35,-3.44064 l 6.35,-3.17712 v -1.28305 c 0,-0.70567 0.0765,-2.01488 0.16998,-2.90935 l 0.16998,-1.62632 h -15.53702 -15.53702 l 0.18658,2.71198 c 0.10262,1.49159 0.23825,2.80128 0.30141,2.91042 0.0632,0.10914 2.91568,0.19844 6.33896,0.19844 3.67375,0 6.188,0.0997 6.13594,0.24328 -0.0485,0.13381 -2.74646,1.56837 -5.99546,3.18792 l -5.90727,2.94463 0.17436,2.69906 c 0.0959,1.48449 0.23212,2.90743 0.3027,3.16209 0.11954,0.43125 0.86466,0.46302 10.86002,0.46302 h 10.73168 l -0.18825,4.03489 c -0.11532,2.47178 -0.30782,4.15685 -0.4969,4.3497 -0.16976,0.17314 -1.8258,0.69875 -3.68008,1.16801 l -3.37143,0.85322 -3.11086,-0.84924 c -3.79072,-1.03483 -3.88814,-1.08495 -3.9709,-2.04264 -0.0365,-0.42189 -0.13522,-1.51121 -0.21949,-2.42071 l -0.15322,-1.65365 h -3.05584 -3.05583 l 0.1779,1.80546 c 0.0978,0.993 0.28032,3.08492 0.40548,4.64872 0.12517,1.56379 0.26885,2.88018 0.3193,2.9253 0.0652,0.0583 11.88016,3.40272 12.60368,3.56766 0.0421,0.01 2.70072,-0.70348 5.90805,-1.58461 z"
           id="path318" /></g></g></g></svg>
