<?xml version="1.0" encoding="UTF-8" standalone="no"?>
<!-- Created with Inkscape (http://www.inkscape.org/) -->

<svg
   width="82.000031mm"
   height="82mm"
   viewBox="0 0 82.000031 82"
   version="1.1"
   id="svg5"
   xml:space="preserve"
   inkscape:version="1.2.2 (732a01da63, 2022-12-09)"
   sodipodi:docname="desenho.svg"
   xmlns:inkscape="http://www.inkscape.org/namespaces/inkscape"
   xmlns:sodipodi="http://sodipodi.sourceforge.net/DTD/sodipodi-0.dtd"
   xmlns="http://www.w3.org/2000/svg"
   xmlns:svg="http://www.w3.org/2000/svg"><sodipodi:namedview
     id="namedview7"
     pagecolor="#505050"
     bordercolor="#eeeeee"
     borderopacity="1"
     inkscape:showpageshadow="0"
     inkscape:pageopacity="0"
     inkscape:pagecheckerboard="0"
     inkscape:deskcolor="#505050"
     inkscape:document-units="mm"
     showgrid="false"
     inkscape:zoom="0.33071229"
     inkscape:cx="-656.15946"
     inkscape:cy="1105.1902"
     inkscape:window-width="2196"
     inkscape:window-height="728"
     inkscape:window-x="-9"
     inkscape:window-y="0"
     inkscape:window-maximized="0"
     inkscape:current-layer="layer1" /><defs
     id="defs2" /><g
     inkscape:label="Camada 1"
     inkscape:groupmode="layer"
     id="layer1"
     transform="translate(346.79734,-222.76809)"><g
       id="g7076"
       transform="translate(-12.800653,-121.6062)"
       inkscape:export-filename="portifolio\src\image\skills\react.png"
       inkscape:export-xdpi="96"
       inkscape:export-ydpi="96"><rect
         style="fill:#292c35;fill-opacity:1;stroke:#a8a8a8;stroke-width:0.101572;stroke-linecap:round;stroke-linejoin:round;stroke-miterlimit:1.3;stroke-opacity:0.623529;paint-order:markers stroke fill"
         id="rect394-5-3"
         width="81.89843"
         height="81.89843"
         x="-333.94589"
         y="344.42508" /><path
         id="path5897"
         style="fill:#62dafc;fill-opacity:1;stroke-width:0.302494"
         d="m -304.29992,417.40109 c 2.90356,-0.86088 6.11565,-2.78284 9.37997,-5.61262 0.92793,-0.80442 1.77749,-1.46256 1.8879,-1.46256 0.1104,0 1.44747,1.01478 2.97128,2.25511 8.67573,7.06166 15.93188,7.0574 18.73497,-0.0111 0.63366,-1.59781 0.70831,-2.26211 0.69416,-6.17649 -0.0102,-2.808 -0.18356,-5.12233 -0.48192,-6.43233 -0.25635,-1.12542 -0.366,-2.10806 -0.24369,-2.18365 0.12232,-0.0758 1.22909,-0.49592 2.45955,-0.93405 7.31874,-2.6061 11.812,-6.57555 12.29513,-10.86167 0.49688,-4.40831 -4.09582,-8.99927 -11.8224,-11.81805 -1.69151,-0.61707 -3.09965,-1.14001 -3.12924,-1.16211 -0.0299,-0.0223 0.16229,-0.99148 0.42643,-2.15419 0.31348,-1.37985 0.48575,-3.6373 0.49614,-6.50012 0.0142,-3.89758 -0.0621,-4.58265 -0.68432,-6.15025 -0.90832,-2.2885 -2.10101,-3.61521 -4.1521,-4.6187 -1.47115,-0.7198 -1.89221,-0.79139 -3.74246,-0.63621 -3.56155,0.29859 -7.41049,2.27272 -11.83312,6.06928 l -1.91935,1.64759 -1.47088,-1.25639 c -5.88812,-5.02958 -10.75602,-7.12705 -14.64669,-6.31094 -3.02871,0.63526 -4.69247,2.36505 -5.83783,6.06952 -0.73082,2.3636 -0.78879,6.56005 -0.14479,10.47965 0.24601,1.49735 0.44967,2.88165 0.45256,3.07624 0.003,0.19458 -0.70935,0.58857 -1.58276,0.87554 -8.08738,2.65709 -13.23399,7.23055 -13.23399,11.76014 0,4.48623 4.07234,8.31926 12.09694,11.38595 1.58197,0.60459 2.85198,1.22572 2.82216,1.3803 -1.8032,9.3538 -1.18022,14.89677 2.01406,17.91952 1.90771,1.80529 4.97856,2.31586 8.19429,1.36249 z m -4.77399,-2.85882 c -2.00028,-0.60822 -3.41398,-3.8615 -3.41398,-7.8565 0,-2.05192 0.80871,-7.54568 1.16328,-7.90238 0.10888,-0.10952 1.46904,0.0478 3.02262,0.35008 1.55357,0.30206 3.73369,0.6405 4.84469,0.75208 1.87256,0.18806 2.06955,0.27844 2.69879,1.23834 0.3733,0.56949 1.7608,2.31503 3.08327,3.87898 l 2.40453,2.84353 -1.42445,1.33012 c -4.29996,4.01533 -9.46163,6.2527 -12.37875,5.36575 z m 28.57317,-0.008 c -2.3816,-0.56132 -5.89352,-2.71366 -8.7565,-5.36658 l -1.42234,-1.318 2.26319,-2.73442 c 1.24477,-1.50391 2.62745,-3.24107 3.07259,-3.86038 0.7923,-1.10219 0.87028,-1.13373 3.6965,-1.49378 1.58791,-0.20232 3.75788,-0.56516 4.82215,-0.80635 1.06427,-0.24118 1.99842,-0.37509 2.07589,-0.29762 0.28223,0.2822 0.95399,4.01525 1.14716,6.37458 0.3691,4.50852 -0.85563,8.32009 -3.00042,9.33783 -1.13026,0.53637 -2.14026,0.57902 -3.89822,0.16472 z m -12.93286,-9.27537 c -0.002,-0.12477 -0.44531,-0.70329 -0.98634,-1.28556 -1.4813,-1.59428 -2.64091,-3.04355 -2.64091,-3.30062 0,-0.12613 1.83762,-0.23346 4.08362,-0.23856 2.246,-0.005 4.08361,0.085 4.08361,0.19971 0,0.11491 -0.89492,1.25362 -1.98874,2.53043 -1.80928,2.11202 -2.54406,2.71528 -2.55124,2.0946 z m -5.90936,-8.14568 c -0.61021,-0.12133 -3.97151,-5.35274 -6.24416,-9.71825 l -0.99309,-1.90754 1.57922,-3.08357 c 0.8686,-1.69595 2.38054,-4.32203 3.35994,-5.83575 2.10778,-3.25773 1.78205,-3.1397 8.66382,-3.1397 6.67754,0 6.56101,-0.0355 8.22835,2.53047 0.76879,1.18332 2.28904,3.77294 3.3783,5.75468 l 1.98046,3.60319 -1.61406,3.0516 c -2.56793,4.85503 -4.86503,8.36036 -5.68224,8.67108 -0.70228,0.267 -11.37176,0.32918 -12.65654,0.0739 z m 9.17581,-6.11755 c 5.51257,-2.82702 3.96468,-11.25189 -2.16061,-11.75982 -3.97771,-0.32988 -6.85055,2.24259 -6.85055,6.13431 0,2.55783 1.17623,4.48463 3.47867,5.69842 1.28787,0.67896 4.13966,0.64139 5.53249,-0.073 z m -14.75847,5.55916 c -0.24957,-0.0485 -1.43092,-0.25709 -2.62524,-0.46312 -3.10555,-0.53566 -3.0706,-0.48995 -2.23072,-2.91338 0.75849,-2.18865 1.7954,-4.39076 1.81768,-3.86032 0.008,0.17487 0.89814,1.85906 1.97957,3.74261 1.0814,1.88357 1.96617,3.47602 1.96617,3.5388 0,0.11646 -0.10981,0.11107 -0.90746,-0.0443 z m 23.08162,-0.25052 c 0.0861,-0.22379 1.03433,-1.92289 2.10767,-3.77578 l 1.95153,-3.36889 0.93335,2.49138 c 0.51333,1.37023 1.01419,2.78665 1.11301,3.14757 0.20062,0.7326 0.0912,0.78649 -2.568,1.26552 -3.71439,0.66907 -3.70182,0.66821 -3.53756,0.2402 z m -34.27711,-2.41632 c -5.87926,-2.07575 -10.28132,-5.67673 -10.28132,-8.41029 0,-2.11323 2.44846,-4.8559 5.97419,-6.69206 1.84371,-0.96012 6.10861,-2.64146 6.70051,-2.64146 0.13012,0 0.40934,0.57852 0.6205,1.28559 0.2111,0.70709 0.99142,2.8232 1.73404,4.70254 l 1.35015,3.41696 -1.35742,3.23784 c -0.74658,1.7808 -1.5269,3.81635 -1.73404,4.52342 -0.20713,0.70707 -0.52521,1.28271 -0.70683,1.27921 -0.18163,-0.003 -1.21653,-0.31929 -2.29978,-0.70175 z m 42.93566,-1.33368 c -0.37161,-1.12301 -1.13139,-3.12665 -1.68837,-4.45256 -0.55699,-1.32591 -1.01271,-2.57233 -1.01271,-2.76984 0,-0.19751 0.38662,-1.22254 0.85911,-2.27788 0.4725,-1.05531 1.23234,-3.04177 1.68853,-4.41429 0.4562,-1.37256 0.86164,-2.49556 0.90096,-2.49556 0.63553,0 3.99056,1.27426 6.16985,2.34335 4.91868,2.4129 7.14599,5.22145 6.38422,8.05036 -0.43315,1.60857 -2.89126,3.97953 -5.6161,5.41692 -2.12166,1.11921 -5.95674,2.64131 -6.65507,2.64131 -0.19512,0 -0.65882,-0.91882 -1.03042,-2.04181 z m -5.71653,-12.86147 c -0.56731,-1.03673 -1.48214,-2.59304 -2.03292,-3.4585 -0.55078,-0.86544 -1.00143,-1.69588 -1.00143,-1.84539 0,-0.15791 0.66104,-0.16737 1.57742,-0.0227 2.9692,0.46938 4.7749,0.91317 4.7749,1.17356 0,0.31098 -1.72965,5.04285 -2.05745,5.62854 -0.15735,0.28117 -0.55178,-0.18059 -1.26052,-1.47572 z m -30.51526,-1.20433 c -0.52826,-1.53895 -0.95881,-2.88656 -0.95685,-2.99476 0.006,-0.3186 6.35593,-1.59065 6.35593,-1.2732 0,0.29685 -4.0511,7.06597 -4.22876,7.06597 -0.11541,0 -0.64206,-1.2591 -1.17032,-2.79801 z m -1.96046,-6.50357 c -0.49012,-0.8205 -0.93639,-4.42106 -0.94678,-7.63787 -0.0115,-3.53384 0.0424,-3.89297 0.82737,-5.49073 0.46175,-0.94028 1.21043,-1.95655 1.6637,-2.25849 1.09705,-0.73071 3.67509,-0.68059 5.71916,0.11109 1.90632,0.73829 5.24596,2.92488 7.33218,4.80055 l 1.5415,1.38598 -1.28825,1.52459 c -2.30951,2.73321 -4.75657,5.82148 -4.76182,6.00948 -0.003,0.10111 -1.26422,0.35222 -2.80313,0.55794 -1.5389,0.20571 -3.72577,0.56536 -4.85961,0.7992 -2.41777,0.49856 -2.25304,0.48508 -2.42432,0.19826 z m 35.76847,0.10705 c -0.13716,-0.13042 -4.93095,-0.93477 -7.42413,-1.24572 -1.49224,-0.18615 -1.60911,-0.27161 -3.09555,-2.2643 -0.84961,-1.13899 -2.2276,-2.85118 -3.0622,-3.80494 -0.8346,-0.95376 -1.50943,-1.81497 -1.49962,-1.91388 0.032,-0.32206 3.71557,-3.25111 5.67296,-4.51089 4.76827,-3.06886 8.82897,-3.03363 10.3362,0.0896 1.49869,3.10564 1.54231,6.95612 0.1482,13.08933 -0.13626,0.59945 -0.71688,0.90209 -1.07586,0.56081 z m -21.45162,-1.87912 c 0,-0.2555 2.82418,-3.77822 3.56606,-4.4481 0.59602,-0.53819 0.64491,-0.50407 2.60129,1.81492 1.0966,1.29988 1.99521,2.46553 1.99686,2.59033 0.002,0.12474 -1.83459,0.22686 -4.08059,0.22686 -2.246,0 -4.08362,-0.083 -4.08362,-0.18401 z" /></g></g></svg>
